<svg width="300" height="60" viewBox="0 0 300 60" fill="none" xmlns="http://www.w3.org/2000/svg">
<circle cx="30" cy="30" r="30" fill="#FFC6CC"/>
<rect x="24" y="6" width="12" height="48" fill="white"/>
<rect x="6" y="36" width="12" height="48" transform="rotate(-90 6 36)" fill="white"/>
<path d="M91.376 48.48C88.656 48.48 86.16 48.24 83.888 47.76C81.616 47.248 79.552 46.576 77.696 45.744C75.872 44.88 74.208 43.904 72.704 42.816L76.448 36.288C79.072 38.144 81.712 39.504 84.368 40.368C87.024 41.2 89.568 41.616 92 41.616C93.056 41.616 94.16 41.52 95.312 41.328C96.464 41.104 97.424 40.736 98.192 40.224C98.992 39.68 99.392 38.944 99.392 38.016C99.392 37.472 99.2 37.024 98.816 36.672C98.464 36.288 97.968 35.984 97.328 35.76C96.688 35.536 95.936 35.36 95.072 35.232C94.24 35.072 93.328 34.96 92.336 34.896C91.376 34.8 90.4 34.704 89.408 34.608C87.168 34.384 85.136 34.016 83.312 33.504C81.488 32.992 79.92 32.336 78.608 31.536C77.328 30.704 76.336 29.696 75.632 28.512C74.928 27.328 74.576 25.968 74.576 24.432C74.576 22.704 74.992 21.168 75.824 19.824C76.688 18.48 77.888 17.36 79.424 16.464C80.96 15.536 82.72 14.832 84.704 14.352C86.72 13.872 88.88 13.632 91.184 13.632C93.584 13.632 95.744 13.856 97.664 14.304C99.616 14.72 101.328 15.296 102.8 16.032C104.304 16.768 105.552 17.568 106.544 18.432L102.608 24.096C101.616 23.36 100.464 22.736 99.152 22.224C97.872 21.68 96.512 21.264 95.072 20.976C93.664 20.688 92.256 20.544 90.848 20.544C89.408 20.544 88.112 20.672 86.96 20.928C85.84 21.152 84.944 21.504 84.272 21.984C83.632 22.432 83.312 23.024 83.312 23.76C83.312 24.432 83.584 24.992 84.128 25.44C84.704 25.856 85.44 26.192 86.336 26.448C87.232 26.672 88.224 26.848 89.312 26.976C90.4 27.104 91.456 27.232 92.48 27.36C94.4 27.552 96.288 27.808 98.144 28.128C100 28.416 101.664 28.896 103.136 29.568C104.64 30.208 105.84 31.136 106.736 32.352C107.632 33.536 108.08 35.152 108.08 37.2C108.08 39.568 107.36 41.6 105.92 43.296C104.48 44.96 102.496 46.24 99.968 47.136C97.472 48.032 94.608 48.48 91.376 48.48ZM116.684 48L133.388 14.4H141.068L157.676 48H149.228L139.292 28.08C138.94 27.376 138.62 26.72 138.332 26.112C138.044 25.472 137.772 24.864 137.516 24.288C137.26 23.68 137.02 23.088 136.796 22.512C136.604 21.904 136.396 21.28 136.172 20.64L138.044 20.592C137.82 21.264 137.58 21.92 137.324 22.56C137.1 23.168 136.844 23.776 136.556 24.384C136.3 24.992 136.028 25.616 135.74 26.256C135.452 26.864 135.148 27.488 134.828 28.128L124.94 48H116.684ZM124.412 42.048L127.1 35.904H147.212L148.316 42.048H124.412ZM169.115 48V14.4H177.275V40.8H198.971V48H169.115ZM229.196 48.288C225.612 48.288 222.492 47.584 219.836 46.176C217.18 44.768 215.116 42.832 213.644 40.368C212.172 37.904 211.436 35.088 211.436 31.92V14.4H219.692V31.728C219.692 33.552 220.092 35.168 220.892 36.576C221.724 37.984 222.86 39.088 224.3 39.888C225.74 40.656 227.372 41.04 229.196 41.04C231.084 41.04 232.748 40.656 234.188 39.888C235.66 39.088 236.812 37.984 237.644 36.576C238.508 35.168 238.94 33.552 238.94 31.728V14.4H246.908V31.92C246.908 35.088 246.172 37.904 244.7 40.368C243.228 42.832 241.164 44.768 238.508 46.176C235.852 47.584 232.748 48.288 229.196 48.288ZM277.751 48.48C275.031 48.48 272.535 48.24 270.263 47.76C267.991 47.248 265.927 46.576 264.071 45.744C262.247 44.88 260.583 43.904 259.079 42.816L262.823 36.288C265.447 38.144 268.087 39.504 270.743 40.368C273.399 41.2 275.943 41.616 278.375 41.616C279.431 41.616 280.535 41.52 281.687 41.328C282.839 41.104 283.799 40.736 284.567 40.224C285.367 39.68 285.767 38.944 285.767 38.016C285.767 37.472 285.575 37.024 285.191 36.672C284.839 36.288 284.343 35.984 283.703 35.76C283.063 35.536 282.311 35.36 281.447 35.232C280.615 35.072 279.703 34.96 278.711 34.896C277.751 34.8 276.775 34.704 275.783 34.608C273.543 34.384 271.511 34.016 269.687 33.504C267.863 32.992 266.295 32.336 264.983 31.536C263.703 30.704 262.711 29.696 262.007 28.512C261.303 27.328 260.951 25.968 260.951 24.432C260.951 22.704 261.367 21.168 262.199 19.824C263.063 18.48 264.263 17.36 265.799 16.464C267.335 15.536 269.095 14.832 271.079 14.352C273.095 13.872 275.255 13.632 277.559 13.632C279.959 13.632 282.119 13.856 284.039 14.304C285.991 14.72 287.703 15.296 289.175 16.032C290.679 16.768 291.927 17.568 292.919 18.432L288.983 24.096C287.991 23.36 286.839 22.736 285.527 22.224C284.247 21.68 282.887 21.264 281.447 20.976C280.039 20.688 278.631 20.544 277.223 20.544C275.783 20.544 274.487 20.672 273.335 20.928C272.215 21.152 271.319 21.504 270.647 21.984C270.007 22.432 269.687 23.024 269.687 23.76C269.687 24.432 269.959 24.992 270.503 25.44C271.079 25.856 271.815 26.192 272.711 26.448C273.607 26.672 274.599 26.848 275.687 26.976C276.775 27.104 277.831 27.232 278.855 27.36C280.775 27.552 282.663 27.808 284.519 28.128C286.375 28.416 288.039 28.896 289.511 29.568C291.015 30.208 292.215 31.136 293.111 32.352C294.007 33.536 294.455 35.152 294.455 37.2C294.455 39.568 293.735 41.6 292.295 43.296C290.855 44.96 288.871 46.24 286.343 47.136C283.847 48.032 280.983 48.48 277.751 48.48Z" fill="white"/>
</svg>
